<svg xmlns="http://www.w3.org/2000/svg" viewBox="0 0 750 158">
  <defs>
    <!-- Official VERT Gradients -->
    <linearGradient id="vertGrad1" x1="0%" y1="0%" x2="100%" y2="100%">
      <stop offset="0%" style="stop-color:#41D1FF;stop-opacity:1" />
      <stop offset="100%" style="stop-color:#BD34FE;stop-opacity:1" />
    </linearGradient>
    <linearGradient id="vertGrad2" x1="0%" y1="0%" x2="100%" y2="100%">
      <stop offset="0%" style="stop-color:#FFEA83;stop-opacity:1" />
      <stop offset="8.333%" style="stop-color:#FFDD35;stop-opacity:1" />
      <stop offset="100%" style="stop-color:#FFA800;stop-opacity:1" />
    </linearGradient>

    <!-- Background Gradient -->
    <linearGradient id="bgGrad" x1="0%" y1="0%" x2="100%" y2="100%">
      <stop offset="0%" style="stop-color:#0F172A;stop-opacity:1" />
      <stop offset="100%" style="stop-color:#1E293B;stop-opacity:1" />
    </linearGradient>

    <!-- Logo Symbol Definition -->
    <symbol id="vertLogo" viewBox="0 0 256 257">
      <path fill="url(#vertGrad1)" d="M255.153 37.938L134.897 252.976c-2.483 4.44-8.862 4.466-11.382.048L.875 37.958c-2.746-4.814 1.371-10.646 6.827-9.67l120.385 21.517a6.537 6.537 0 0 0 2.322-.004l117.867-21.483c5.438-.991 9.574 4.796 6.877 9.62Z" />
      <g transform="translate(70, 60) scale(0.7)">
        <rect x="20" y="120" width="140" height="30" rx="5" ry="5" fill="url(#vertGrad2)" />
        <rect x="30" y="80" width="120" height="30" rx="5" ry="5" fill="url(#vertGrad2)" />
        <rect x="40" y="40" width="100" height="30" rx="5" ry="5" fill="url(#vertGrad2)" />
      </g>
    </symbol>

    <!-- Tech Grid Pattern - Adjusted scale for mobile -->
    <pattern id="techGrid" x="0" y="0" width="30" height="30" patternUnits="userSpaceOnUse">
      <path d="M0,15 L30,15 M15,0 L15,30" stroke="#41D1FF" stroke-width="0.5" opacity="0.1"/>
      <circle cx="15" cy="15" r="0.8" fill="#BD34FE" opacity="0.2"/>
    </pattern>
  </defs>

  <!-- Background -->
  <rect width="750" height="158" fill="url(#bgGrad)"/>
  <rect width="750" height="158" fill="url(#techGrid)"/>

  <!-- Centered Logo - Adjusted position and size -->
  <use href="#vertLogo" x="275" y="4" width="200" height="150"/>

  <!-- Decorative Elements - Adjusted for mobile width -->
  <g transform="translate(375,125)" stroke-width="1.5" opacity="0.6">
    <path d="M-300,0 L300,0" stroke="url(#vertGrad1)" opacity="0.2"/>
    <circle cx="-225" cy="0" r="4" fill="#41D1FF"/>
    <circle cx="-75" cy="0" r="4" fill="#BD34FE"/>
    <circle cx="75" cy="0" r="4" fill="#FFDD35"/>
    <circle cx="225" cy="0" r="4" fill="#FFA800"/>
  </g>
</svg>